<mxfile host="Electron" agent="Mozilla/5.0 (Windows NT 10.0; Win64; x64) AppleWebKit/537.36 (KHTML, like Gecko) draw.io/24.7.17 Chrome/128.0.6613.36 Electron/32.0.1 Safari/537.36" version="24.7.17">
  <diagram name="Page-1" id="VrH6cMHvCVDEhrqtHkwV">
    <mxGraphModel dx="1036" dy="1783" grid="1" gridSize="10" guides="1" tooltips="1" connect="1" arrows="1" fold="1" page="1" pageScale="1" pageWidth="827" pageHeight="1169" math="0" shadow="0">
      <root>
        <mxCell id="0" />
        <mxCell id="1" parent="0" />
        <mxCell id="nn7kCt6rPqkaCFHMMwmE-2" value="" style="rounded=0;whiteSpace=wrap;html=1;dashed=1;dashPattern=8 8;" parent="1" vertex="1">
          <mxGeometry x="90" y="-90" width="737" height="770" as="geometry" />
        </mxCell>
        <mxCell id="nn7kCt6rPqkaCFHMMwmE-3" value="Connaitre les informations technique d&#39;un film" style="ellipse;whiteSpace=wrap;html=1;" parent="1" vertex="1">
          <mxGeometry x="180" y="-60" width="130" height="90" as="geometry" />
        </mxCell>
        <mxCell id="nn7kCt6rPqkaCFHMMwmE-4" value="Noter un film" style="ellipse;whiteSpace=wrap;html=1;" parent="1" vertex="1">
          <mxGeometry x="177.5" y="250" width="130" height="90" as="geometry" />
        </mxCell>
        <mxCell id="nn7kCt6rPqkaCFHMMwmE-5" value="Consulter les avis des &quot;éclaireurs&quot; sur les films qu&#39;ils ont notés&amp;nbsp;" style="ellipse;whiteSpace=wrap;html=1;" parent="1" vertex="1">
          <mxGeometry x="180" y="460" width="130" height="90" as="geometry" />
        </mxCell>
        <mxCell id="nn7kCt6rPqkaCFHMMwmE-6" value="Rechercher un film" style="ellipse;whiteSpace=wrap;html=1;" parent="1" vertex="1">
          <mxGeometry x="400" y="120" width="130" height="90" as="geometry" />
        </mxCell>
        <mxCell id="nn7kCt6rPqkaCFHMMwmE-10" value="S&#39;authentifier" style="ellipse;whiteSpace=wrap;html=1;" parent="1" vertex="1">
          <mxGeometry x="670" y="340" width="120" height="60" as="geometry" />
        </mxCell>
        <mxCell id="nn7kCt6rPqkaCFHMMwmE-12" value="Ajouter un nouveau &quot;éclaireurs&quot;&amp;nbsp;" style="ellipse;whiteSpace=wrap;html=1;" parent="1" vertex="1">
          <mxGeometry x="190" y="350" width="130" height="90" as="geometry" />
        </mxCell>
        <mxCell id="Fjddjj9d4KbrgobwnhHL-3" value="Voir la moyenne des notes des éclaireurs par rapport à un film" style="ellipse;whiteSpace=wrap;html=1;" parent="1" vertex="1">
          <mxGeometry x="180" y="570" width="140" height="90" as="geometry" />
        </mxCell>
        <mxCell id="Fjddjj9d4KbrgobwnhHL-10" value="Ajouter un film à ses &quot;films favories&quot;" style="ellipse;whiteSpace=wrap;html=1;" parent="1" vertex="1">
          <mxGeometry x="180" y="140" width="125" height="100" as="geometry" />
        </mxCell>
        <mxCell id="Fjddjj9d4KbrgobwnhHL-14" value="Rechercher d&#39;autres utilisateurs" style="ellipse;whiteSpace=wrap;html=1;" parent="1" vertex="1">
          <mxGeometry x="414" y="350" width="130" height="90" as="geometry" />
        </mxCell>
        <mxCell id="Fjddjj9d4KbrgobwnhHL-20" value="Ajouter un film à sa liste &quot;à regarder plus tard &quot;" style="ellipse;whiteSpace=wrap;html=1;" parent="1" vertex="1">
          <mxGeometry x="176.25" y="40" width="132.5" height="90" as="geometry" />
        </mxCell>
        <mxCell id="i5Tq3qHVIuuWYWNGPW3--8" value="" style="endArrow=open;html=1;rounded=0;dashed=1;dashPattern=12 12;endFill=0;" edge="1" parent="1">
          <mxGeometry width="50" height="50" relative="1" as="geometry">
            <mxPoint x="315" y="100" as="sourcePoint" />
            <mxPoint x="400" y="150" as="targetPoint" />
          </mxGeometry>
        </mxCell>
        <mxCell id="i5Tq3qHVIuuWYWNGPW3--11" value="" style="endArrow=open;html=1;rounded=0;dashed=1;dashPattern=12 12;endFill=0;" edge="1" parent="1">
          <mxGeometry width="50" height="50" relative="1" as="geometry">
            <mxPoint x="313.5" y="10.01" as="sourcePoint" />
            <mxPoint x="420" y="130" as="targetPoint" />
          </mxGeometry>
        </mxCell>
        <mxCell id="i5Tq3qHVIuuWYWNGPW3--12" value="&lt;strong&gt;«i&lt;/strong&gt;niclude»" style="text;html=1;align=center;verticalAlign=middle;whiteSpace=wrap;rounded=0;rotation=45;" vertex="1" parent="1">
          <mxGeometry x="340" y="40" width="60" height="30" as="geometry" />
        </mxCell>
        <mxCell id="i5Tq3qHVIuuWYWNGPW3--14" value="" style="endArrow=open;html=1;rounded=0;dashed=1;dashPattern=12 12;endFill=0;" edge="1" parent="1">
          <mxGeometry width="50" height="50" relative="1" as="geometry">
            <mxPoint x="314.96" y="205.62" as="sourcePoint" />
            <mxPoint x="400" y="180" as="targetPoint" />
          </mxGeometry>
        </mxCell>
        <mxCell id="i5Tq3qHVIuuWYWNGPW3--15" value="&lt;strong&gt;«&lt;/strong&gt;include»" style="text;html=1;align=center;verticalAlign=middle;whiteSpace=wrap;rounded=0;rotation=-15;" vertex="1" parent="1">
          <mxGeometry x="320" y="160" width="60" height="30" as="geometry" />
        </mxCell>
        <mxCell id="i5Tq3qHVIuuWYWNGPW3--18" value="" style="endArrow=open;html=1;rounded=0;dashed=1;dashPattern=12 12;endFill=0;exitX=1;exitY=0.5;exitDx=0;exitDy=0;" edge="1" parent="1">
          <mxGeometry width="50" height="50" relative="1" as="geometry">
            <mxPoint x="312.5" y="295" as="sourcePoint" />
            <mxPoint x="407.5" y="190" as="targetPoint" />
          </mxGeometry>
        </mxCell>
        <mxCell id="i5Tq3qHVIuuWYWNGPW3--22" value="&lt;strong&gt;«&lt;/strong&gt;include»" style="text;html=1;align=center;verticalAlign=middle;whiteSpace=wrap;rounded=0;rotation=-45;" vertex="1" parent="1">
          <mxGeometry x="320" y="220" width="60" height="30" as="geometry" />
        </mxCell>
        <mxCell id="i5Tq3qHVIuuWYWNGPW3--23" value="Rechercher" style="ellipse;whiteSpace=wrap;html=1;" vertex="1" parent="1">
          <mxGeometry x="510" y="240" width="130" height="60" as="geometry" />
        </mxCell>
        <mxCell id="i5Tq3qHVIuuWYWNGPW3--24" value="Rechercher un éclaireurs" style="ellipse;whiteSpace=wrap;html=1;" vertex="1" parent="1">
          <mxGeometry x="414" y="510" width="130" height="90" as="geometry" />
        </mxCell>
        <mxCell id="i5Tq3qHVIuuWYWNGPW3--25" value="" style="endArrow=block;html=1;rounded=0;endFill=0;" edge="1" parent="1">
          <mxGeometry width="50" height="50" relative="1" as="geometry">
            <mxPoint x="510" y="200" as="sourcePoint" />
            <mxPoint x="546" y="240" as="targetPoint" />
          </mxGeometry>
        </mxCell>
        <mxCell id="i5Tq3qHVIuuWYWNGPW3--26" value="" style="endArrow=block;html=1;rounded=0;endFill=0;" edge="1" parent="1">
          <mxGeometry width="50" height="50" relative="1" as="geometry">
            <mxPoint x="510" y="350" as="sourcePoint" />
            <mxPoint x="540" y="300" as="targetPoint" />
          </mxGeometry>
        </mxCell>
        <mxCell id="i5Tq3qHVIuuWYWNGPW3--27" value="" style="endArrow=block;html=1;rounded=0;endFill=0;" edge="1" parent="1">
          <mxGeometry width="50" height="50" relative="1" as="geometry">
            <mxPoint x="468.7982786378954" y="502.31698331168036" as="sourcePoint" />
            <mxPoint x="480" y="450" as="targetPoint" />
          </mxGeometry>
        </mxCell>
        <mxCell id="i5Tq3qHVIuuWYWNGPW3--28" value="" style="endArrow=open;html=1;rounded=0;dashed=1;dashPattern=12 12;endFill=0;" edge="1" parent="1">
          <mxGeometry width="50" height="50" relative="1" as="geometry">
            <mxPoint x="330" y="390" as="sourcePoint" />
            <mxPoint x="410" y="390" as="targetPoint" />
          </mxGeometry>
        </mxCell>
        <mxCell id="i5Tq3qHVIuuWYWNGPW3--31" value="&lt;strong&gt;«&lt;/strong&gt;include»" style="text;html=1;align=center;verticalAlign=middle;whiteSpace=wrap;rounded=0;rotation=0;" vertex="1" parent="1">
          <mxGeometry x="340" y="360" width="60" height="30" as="geometry" />
        </mxCell>
        <mxCell id="i5Tq3qHVIuuWYWNGPW3--32" value="" style="endArrow=open;html=1;rounded=0;dashed=1;dashPattern=12 12;endFill=0;entryX=0.022;entryY=0.276;entryDx=0;entryDy=0;entryPerimeter=0;" edge="1" parent="1" target="i5Tq3qHVIuuWYWNGPW3--24">
          <mxGeometry width="50" height="50" relative="1" as="geometry">
            <mxPoint x="319.99999999999994" y="510" as="sourcePoint" />
            <mxPoint x="408.8853968533015" y="527.3508378062633" as="targetPoint" />
          </mxGeometry>
        </mxCell>
        <mxCell id="i5Tq3qHVIuuWYWNGPW3--33" value="" style="endArrow=open;html=1;rounded=0;dashed=1;dashPattern=12 12;endFill=0;entryX=0;entryY=0.5;entryDx=0;entryDy=0;" edge="1" parent="1">
          <mxGeometry width="50" height="50" relative="1" as="geometry">
            <mxPoint x="324.87999999999994" y="620" as="sourcePoint" />
            <mxPoint x="415.13" y="570" as="targetPoint" />
          </mxGeometry>
        </mxCell>
        <mxCell id="i5Tq3qHVIuuWYWNGPW3--34" value="&lt;strong&gt;«&lt;/strong&gt;include»" style="text;html=1;align=center;verticalAlign=middle;whiteSpace=wrap;rounded=0;rotation=15;" vertex="1" parent="1">
          <mxGeometry x="339.83" y="491.29" width="70" height="30" as="geometry" />
        </mxCell>
        <mxCell id="i5Tq3qHVIuuWYWNGPW3--35" value="&lt;strong&gt;«&lt;/strong&gt;include»" style="text;html=1;align=center;verticalAlign=middle;whiteSpace=wrap;rounded=0;rotation=-30;" vertex="1" parent="1">
          <mxGeometry x="330" y="570" width="60" height="30" as="geometry" />
        </mxCell>
        <mxCell id="i5Tq3qHVIuuWYWNGPW3--38" value="&lt;strong&gt;«&lt;/strong&gt;include»" style="text;html=1;align=center;verticalAlign=middle;whiteSpace=wrap;rounded=0;rotation=29;" vertex="1" parent="1">
          <mxGeometry x="330" y="100" width="60" height="30" as="geometry" />
        </mxCell>
        <mxCell id="i5Tq3qHVIuuWYWNGPW3--39" value="" style="endArrow=open;html=1;rounded=0;dashed=1;dashPattern=12 12;endFill=0;entryX=0;entryY=0;entryDx=0;entryDy=0;" edge="1" parent="1" target="nn7kCt6rPqkaCFHMMwmE-10">
          <mxGeometry width="50" height="50" relative="1" as="geometry">
            <mxPoint x="620" y="300" as="sourcePoint" />
            <mxPoint x="670" y="330" as="targetPoint" />
          </mxGeometry>
        </mxCell>
        <mxCell id="i5Tq3qHVIuuWYWNGPW3--40" value="«include»" style="text;html=1;align=center;verticalAlign=middle;whiteSpace=wrap;rounded=0;rotation=30;" vertex="1" parent="1">
          <mxGeometry x="640" y="300" width="60" height="30" as="geometry" />
        </mxCell>
        <mxCell id="i5Tq3qHVIuuWYWNGPW3--41" value="Créer un compte" style="ellipse;whiteSpace=wrap;html=1;" vertex="1" parent="1">
          <mxGeometry x="665" y="460" width="130" height="60" as="geometry" />
        </mxCell>
        <mxCell id="i5Tq3qHVIuuWYWNGPW3--44" value="" style="endArrow=open;html=1;rounded=0;dashed=1;dashPattern=12 12;endFill=0;entryX=0.5;entryY=1;entryDx=0;entryDy=0;" edge="1" parent="1">
          <mxGeometry width="50" height="50" relative="1" as="geometry">
            <mxPoint x="729.5" y="455" as="sourcePoint" />
            <mxPoint x="729.5" y="405" as="targetPoint" />
          </mxGeometry>
        </mxCell>
        <mxCell id="i5Tq3qHVIuuWYWNGPW3--45" value="«extends»" style="text;html=1;align=center;verticalAlign=middle;whiteSpace=wrap;rounded=0;rotation=0;" vertex="1" parent="1">
          <mxGeometry x="720" y="420" width="75" height="30" as="geometry" />
        </mxCell>
        <mxCell id="i5Tq3qHVIuuWYWNGPW3--46" value="&lt;font style=&quot;font-size: 11px;&quot;&gt;Condition : {l&#39;utilisateur n&#39;a pas encore de compte}&lt;/font&gt;&lt;div&gt;&lt;span style=&quot;font-size: 11px;&quot;&gt;&lt;br&gt;&lt;/span&gt;&lt;div style=&quot;font-size: 11px;&quot;&gt;&lt;font style=&quot;font-size: 11px;&quot;&gt;Point d&#39;extention : créer un compte&lt;/font&gt;&lt;/div&gt;&lt;/div&gt;" style="shape=note;whiteSpace=wrap;html=1;backgroundOutline=1;darkOpacity=0.05;align=left;" vertex="1" parent="1">
          <mxGeometry x="560" y="550" width="240" height="60" as="geometry" />
        </mxCell>
        <mxCell id="i5Tq3qHVIuuWYWNGPW3--48" value="" style="endArrow=none;dashed=1;html=1;dashPattern=1 3;strokeWidth=2;rounded=0;exitX=0.253;exitY=-0.053;exitDx=0;exitDy=0;exitPerimeter=0;" edge="1" parent="1" source="i5Tq3qHVIuuWYWNGPW3--46">
          <mxGeometry width="50" height="50" relative="1" as="geometry">
            <mxPoint x="610" y="480" as="sourcePoint" />
            <mxPoint x="730" y="435" as="targetPoint" />
            <Array as="points">
              <mxPoint x="620" y="435" />
            </Array>
          </mxGeometry>
        </mxCell>
        <mxCell id="i5Tq3qHVIuuWYWNGPW3--49" value="Utilisateur" style="shape=umlActor;verticalLabelPosition=bottom;verticalAlign=top;html=1;outlineConnect=0;" vertex="1" parent="1">
          <mxGeometry x="30" y="200" width="30" height="60" as="geometry" />
        </mxCell>
        <mxCell id="i5Tq3qHVIuuWYWNGPW3--50" value="" style="endArrow=none;html=1;rounded=0;entryX=0.012;entryY=0.618;entryDx=0;entryDy=0;entryPerimeter=0;" edge="1" parent="1" target="nn7kCt6rPqkaCFHMMwmE-3">
          <mxGeometry width="50" height="50" relative="1" as="geometry">
            <mxPoint x="70" y="230" as="sourcePoint" />
            <mxPoint x="120" y="150" as="targetPoint" />
          </mxGeometry>
        </mxCell>
        <mxCell id="i5Tq3qHVIuuWYWNGPW3--51" value="" style="endArrow=none;html=1;rounded=0;entryX=0.01;entryY=0.627;entryDx=0;entryDy=0;entryPerimeter=0;" edge="1" parent="1" target="Fjddjj9d4KbrgobwnhHL-20">
          <mxGeometry width="50" height="50" relative="1" as="geometry">
            <mxPoint x="70" y="230" as="sourcePoint" />
            <mxPoint x="192" y="6" as="targetPoint" />
          </mxGeometry>
        </mxCell>
        <mxCell id="i5Tq3qHVIuuWYWNGPW3--52" value="" style="endArrow=none;html=1;rounded=0;entryX=0;entryY=0.596;entryDx=0;entryDy=0;entryPerimeter=0;" edge="1" parent="1" target="Fjddjj9d4KbrgobwnhHL-10">
          <mxGeometry width="50" height="50" relative="1" as="geometry">
            <mxPoint x="70" y="230" as="sourcePoint" />
            <mxPoint x="188" y="106" as="targetPoint" />
          </mxGeometry>
        </mxCell>
        <mxCell id="i5Tq3qHVIuuWYWNGPW3--53" value="" style="endArrow=none;html=1;rounded=0;entryX=0.007;entryY=0.4;entryDx=0;entryDy=0;entryPerimeter=0;" edge="1" parent="1" target="nn7kCt6rPqkaCFHMMwmE-4">
          <mxGeometry width="50" height="50" relative="1" as="geometry">
            <mxPoint x="70" y="230" as="sourcePoint" />
            <mxPoint x="190" y="210" as="targetPoint" />
          </mxGeometry>
        </mxCell>
        <mxCell id="i5Tq3qHVIuuWYWNGPW3--54" value="" style="endArrow=none;html=1;rounded=0;entryX=0.028;entryY=0.364;entryDx=0;entryDy=0;entryPerimeter=0;" edge="1" parent="1" target="nn7kCt6rPqkaCFHMMwmE-12">
          <mxGeometry width="50" height="50" relative="1" as="geometry">
            <mxPoint x="70" y="230" as="sourcePoint" />
            <mxPoint x="188" y="296" as="targetPoint" />
          </mxGeometry>
        </mxCell>
        <mxCell id="i5Tq3qHVIuuWYWNGPW3--55" value="" style="endArrow=none;html=1;rounded=0;entryX=0.055;entryY=0.289;entryDx=0;entryDy=0;entryPerimeter=0;" edge="1" parent="1" target="nn7kCt6rPqkaCFHMMwmE-5">
          <mxGeometry width="50" height="50" relative="1" as="geometry">
            <mxPoint x="70" y="230" as="sourcePoint" />
            <mxPoint x="204" y="393" as="targetPoint" />
          </mxGeometry>
        </mxCell>
        <mxCell id="i5Tq3qHVIuuWYWNGPW3--56" value="" style="endArrow=none;html=1;rounded=0;entryX=0.069;entryY=0.258;entryDx=0;entryDy=0;entryPerimeter=0;" edge="1" parent="1" target="Fjddjj9d4KbrgobwnhHL-3">
          <mxGeometry width="50" height="50" relative="1" as="geometry">
            <mxPoint x="70" y="230" as="sourcePoint" />
            <mxPoint x="180" y="570" as="targetPoint" />
          </mxGeometry>
        </mxCell>
      </root>
    </mxGraphModel>
  </diagram>
</mxfile>
